# Blender v2.82 (sub 7) OBJ File: ''
# www.blender.org
mtllib w64.mtl
o Cube.001_Cube.017
v 0.318157 -1.650907 -1.113178
v 1.370329 -1.656416 -1.114470
v 1.373133 -1.656417 1.112765
v 0.320962 -1.650908 1.114056
v -0.326364 -1.647520 1.113657
v -1.378534 -1.642009 1.114949
v -1.381338 -1.642008 -1.112287
v -0.329167 -1.647517 -1.113577
v 1.646659 -1.657851 1.111768
v 2.599530 1.635629 1.110858
v 1.458202 1.641604 1.112149
v 0.376265 -1.651199 1.113060
v 0.373462 -1.651196 -1.114176
v 1.455683 1.641605 -1.115086
v 2.597011 1.635629 -1.116377
v 1.643854 -1.657848 -1.115466
v -0.308268 1.650841 -1.112305
v 0.614839 1.646008 -1.113596
v 0.617358 1.646008 1.113638
v -0.305748 1.650840 1.114929
v -1.672993 -1.640481 -1.112211
v -2.591323 1.662796 -1.111337
v -1.449996 1.656819 -1.112628
v -0.402602 -1.647133 -1.113500
v -0.399797 -1.647135 1.113734
v -1.447477 1.656818 1.114607
v -2.588804 1.662796 1.115898
v -1.670189 -1.640482 1.115024
v 0.334603 1.647488 1.112746
v -0.588503 1.652321 1.114037
v -0.591022 1.652322 -1.113197
v 0.332083 1.647488 -1.114488
vn -0.0052 -1.0000 0.0000
vn 0.0011 -0.0001 1.0000
vn -0.0011 0.0001 -1.0000
vn -0.0013 -0.0000 -1.0000
vn 0.0013 0.0000 1.0000
vn -0.0011 -0.0001 -1.0000
vn 0.0011 0.0001 1.0000
vn -0.9500 0.3122 0.0011
vn 0.9748 0.2230 -0.0012
vn 0.9532 0.3022 -0.0011
vn -0.9724 0.2332 0.0012
vn 0.9606 -0.2780 -0.0011
vn -0.9825 -0.1864 0.0012
vn -0.9634 -0.2679 0.0012
vn 0.9805 -0.1967 -0.0012
vn 0.0052 1.0000 -0.0000
usemtl Material.002
s 1
f 1//1 2//1 3//1 4//1
f 5//1 6//1 7//1 8//1
usemtl Material.003
f 9//2 10//2 11//2 12//2
f 13//3 14//3 15//3 16//3
f 1//4 17//4 18//4 2//4
f 3//5 19//5 20//5 4//5
f 21//6 22//6 23//6 24//6
f 25//7 26//7 27//7 28//7
f 5//5 29//5 30//5 6//5
f 7//4 31//4 32//4 8//4
usemtl Material.004
f 12//8 11//8 14//8 13//8
f 2//9 18//9 19//9 3//9
f 24//10 23//10 26//10 25//10
f 6//11 30//11 31//11 7//11
usemtl Material.005
f 16//12 15//12 10//12 9//12
f 4//13 20//13 17//13 1//13
f 28//14 27//14 22//14 21//14
f 8//15 32//15 29//15 5//15
usemtl Material.006
f 9//1 12//1 13//1 16//1
f 11//16 10//16 15//16 14//16
f 18//16 17//16 20//16 19//16
f 21//1 24//1 25//1 28//1
f 23//16 22//16 27//16 26//16
f 30//16 29//16 32//16 31//16
